<?xml version="1.0" encoding="utf-8"?>
<!-- Generator: Adobe Illustrator 17.1.0, SVG Export Plug-In . SVG Version: 6.00 Build 0)  -->
<!DOCTYPE svg PUBLIC "-//W3C//DTD SVG 1.1//EN" "http://www.w3.org/Graphics/SVG/1.1/DTD/svg11.dtd">
<svg version="1.1" id="Layer_1" xmlns="http://www.w3.org/2000/svg" xmlns:xlink="http://www.w3.org/1999/xlink" x="0px" y="0px"
	 viewBox="0 0 161 21" enable-background="new 0 0 161 21" xml:space="preserve">
<g>
	<path fill="#FFFFFF" d="M14.5,11.2C14.5,7.7,13,6,10.1,6c-1.3,0-2.6,0.5-4,1.5V0.2h-6.8v3.3h2.3v13.8h-2.3v3.3h8.8v-3.3h-2v-6.7
		C7,10,7.8,9.7,8.5,9.7c0.5,0,0.8,0.1,1.1,0.4c0.2,0.2,0.4,0.7,0.4,1.4v9.1h6.6v-3.3h-2.1V11.2z M26.1,6c-2.1,0-3.9,0.7-5.3,2
		c-1.4,1.3-2.2,3.1-2.2,5.4s0.7,4.1,2.2,5.4c1.4,1.3,3.2,2,5.3,2s3.9-0.7,5.3-2s2.1-3.1,2.1-5.4S32.8,9.3,31.3,8
		C30,6.6,28.2,6,26.1,6z M28.1,16.3c-0.5,0.6-1.2,1-2,1c-0.9,0-1.6-0.4-2.1-1.1s-0.7-1.6-0.7-2.7c0-2.7,0.9-4,2.8-4
		c0.9,0,1.6,0.3,2.1,1s0.8,1.6,0.8,2.8C28.9,14.7,28.6,15.7,28.1,16.3z M52,9.6h1.6l-1.7,5.3l-2.8-8.5h-3.8l-2.9,8.5l-1.7-5.3h1.5
		V6.3h-7.7v3.3h1.8L40,20.7h4l2.7-8.3l2.8,8.3h3.9l3.7-11.1h1.8V6.3H52V9.6z M65.4,0.8l-4.5,3.3v2.2h-1.8v3.3h1.8V17
		c0,2.5,1.2,3.7,3.7,3.7c1.1,0,2.3-0.2,3.4-0.7v-3.1c-0.5,0.2-1,0.3-1.4,0.3c-0.5,0-0.8-0.1-1-0.3c-0.1-0.2-0.2-0.6-0.2-1.1V9.7H68
		V6.4h-2.6V0.8z M77.1,6c-2.1,0-3.9,0.7-5.3,2s-2.2,3.1-2.2,5.4s0.7,4.1,2.2,5.4c1.4,1.3,3.2,2,5.3,2c2.1,0,3.9-0.7,5.3-2
		s2.1-3.1,2.1-5.4S83.8,9.3,82.3,8C81,6.6,79.2,6,77.1,6z M79.1,16.3c-0.5,0.6-1.2,1-2,1c-0.9,0-1.6-0.4-2.1-1.1s-0.7-1.6-0.7-2.7
		c0-2.7,0.9-4,2.8-4c0.9,0,1.6,0.3,2.1,1s0.8,1.6,0.8,2.8C79.9,14.7,79.6,15.7,79.1,16.3z M87.4,20.5h4.9v-4.9h-4.9V20.5z M99.2,9.2
		c0-1.7,1.4-2.3,3-2.3s2.7,0.6,3.2,1c0.4,0.2,0.8,0.2,1-0.2l0.2-0.3c0.2-0.4,0.2-0.7-0.2-1c-0.6-0.5-2-1.2-4.1-1.2
		c-2.8,0-5.1,1.4-5.1,4.2c0,5,8.1,4,8.1,7.3c0,1.6-1.4,2.4-3.1,2.4c-1.9,0-3.3-0.9-4-1.4c-0.4-0.3-0.8-0.2-1,0.1L97,18.1
		c-0.3,0.4-0.2,0.8,0.1,1c0.8,0.6,2.5,1.7,5.1,1.7c3,0,5.1-1.8,5.1-4.3C107.2,11.6,99.2,12.7,99.2,9.2z M116.7,18.8
		c-1.2-0.1-3.3-0.5-3.3-4V7.2h3.1c0.5,0,0.7-0.2,0.7-0.7V6.3c0-0.5-0.3-0.8-0.7-0.8h-3.1V2c0-0.5-0.2-0.8-0.7-0.8h-0.5
		c-0.5,0-0.7,0.3-0.7,0.8v3.5h-1.3c-0.5,0-0.7,0.3-0.7,0.8v0.2c0,0.5,0.2,0.7,0.7,0.7h1.3V15c0,3.5,2,5.5,5.3,5.5
		c0.6,0,0.8-0.2,0.8-0.7v-0.4C117.6,19,117.3,18.8,116.7,18.8z M126.7,5.1c-4.4,0-7.9,3.4-7.9,7.8c0,4.6,3.6,8,8,8s7.9-3.4,7.9-8
		C134.7,8.4,131.1,5.1,126.7,5.1z M126.7,19c-3.2,0-5.9-2.6-5.9-6.1c0-3.4,2.6-6,5.9-6c3.2,0,5.8,2.6,5.8,6
		C132.6,16.4,129.9,19,126.7,19z M144.6,5.3c-2.4,0-4.1,1.9-4.9,4.1h-0.1c0,0,0.1-0.5,0.1-1.2v-2c0-0.5-0.3-0.8-0.7-0.8h-0.5
		c-0.5,0-0.8,0.3-0.8,0.8v13.6c0,0.5,0.3,0.8,0.8,0.8h0.6c0.5,0,0.7-0.3,0.7-0.8v-5.6c0-3.1,1.5-6.8,4.7-6.8c0.5,0,0.8-0.3,0.8-0.7
		V6C145.4,5.6,145.2,5.3,144.6,5.3z M160.6,12.3c0-4.3-2.3-7.2-6.3-7.2c-4.1,0-7.4,3-7.4,7.9c0,4.6,3.4,7.9,7.9,7.9
		c2.4,0,4.2-1.1,5-1.7c0.4-0.3,0.4-0.6,0.2-1l-0.2-0.4c-0.2-0.4-0.6-0.5-1-0.2c-0.7,0.5-2.1,1.4-4,1.4c-3.1,0-5.8-2.2-5.8-6h10.9
		C160.2,13,160.6,12.7,160.6,12.3z M149,11.5c0.5-3.1,2.7-4.7,5.2-4.7c2.2,0,4.2,1.6,4.3,4.7H149z"/>
</g>
</svg>
